<svg width="26" height="32" viewBox="0 0 26 32" fill="none" xmlns="http://www.w3.org/2000/svg">
<path d="M14.9787 2.03238V3.19896C19.1685 4.10003 22.3252 8.02327 22.3252 12.7261V13.8683C22.3252 16.7301 23.3182 19.4825 25.1089 21.6213L25.5336 22.1256C26.0157 22.7028 26.1362 23.517 25.8378 24.2157C25.5393 24.9144 24.885 25.364 24.1619 25.364H2.12226C1.39909 25.364 0.743125 24.9144 0.446853 24.2157C0.150581 23.517 0.269084 22.7028 0.74961 22.1256L1.17525 21.6213C2.96826 19.4825 3.9589 16.7301 3.9589 13.8683V12.7261C3.9589 8.02327 7.06395 4.10003 11.3054 3.19896V2.03238C11.3054 0.958758 12.1262 0.0880737 13.1421 0.0880737C14.1579 0.0880737 14.9787 0.958758 14.9787 2.03238ZM13.1421 31.197C12.1664 31.197 11.2308 30.7899 10.5421 30.0608C9.85334 29.3316 9.4688 28.2866 9.4688 27.3083H16.8153C16.8153 28.2866 16.4308 29.3316 15.742 30.0608C15.0533 30.7899 14.0661 31.197 13.1421 31.197Z" fill="white"/>
</svg>
