<?xml version="1.0" standalone="no"?>
<!DOCTYPE svg PUBLIC "-//W3C//DTD SVG 20010904//EN"
 "http://www.w3.org/TR/2001/REC-SVG-20010904/DTD/svg10.dtd">
<svg version="1.0" xmlns="http://www.w3.org/2000/svg"
 width="932.000000pt" height="318.000000pt" viewBox="0 0 932.000000 318.000000"
 preserveAspectRatio="xMidYMid meet">

<g transform="translate(0.000000,318.000000) scale(0.100000,-0.100000)"
fill="#000000" stroke="none">
<path d="M2008 3173 c7 -3 16 -2 19 1 4 3 -2 6 -13 5 -11 0 -14 -3 -6 -6z"/>
<path d="M650 2850 c0 -18 7 -20 65 -20 58 0 65 2 65 20 0 18 -7 20 -65 20
-58 0 -65 -2 -65 -20z"/>
<path d="M1283 2863 c-13 -2 -23 -11 -23 -19 0 -11 18 -14 85 -14 65 0 85 3
85 14 0 21 -80 32 -147 19z"/>
<path d="M1888 2863 c-10 -2 -18 -11 -18 -19 0 -11 17 -14 80 -14 61 0 80 3
80 14 0 22 -86 34 -142 19z"/>
<path d="M560 2720 c0 -18 -8 -20 -107 -22 -100 -3 -108 -4 -108 -23 0 -13 8
-21 23 -23 14 -2 22 -10 22 -23 0 -14 7 -19 25 -19 18 0 25 -5 25 -20 0 -13 7
-20 20 -20 15 0 20 -7 20 -25 0 -18 5 -25 20 -25 13 0 20 -7 20 -20 0 -13 7
-20 19 -20 13 0 21 -8 23 -22 2 -15 11 -24 26 -26 14 -2 22 -10 22 -23 0 -12
7 -19 20 -19 15 0 20 -7 20 -25 0 -18 5 -25 19 -25 13 0 21 -10 25 -34 4 -22
13 -36 26 -39 12 -3 20 -14 20 -26 0 -14 6 -21 20 -21 13 0 20 -7 20 -19 0
-13 8 -21 23 -23 14 -2 23 -11 25 -25 2 -15 10 -23 23 -23 12 0 19 -7 19 -20
0 -13 7 -20 20 -20 15 0 20 -7 20 -25 0 -18 5 -25 19 -25 22 0 33 -41 24 -94
-4 -26 -11 -36 -24 -36 -15 0 -19 -8 -19 -40 0 -33 -3 -40 -20 -40 -17 0 -20
-7 -20 -45 0 -38 -3 -45 -20 -45 -18 0 -20 -7 -20 -65 l0 -65 40 0 c33 0 40
-3 40 -20 0 -17 -7 -20 -40 -20 l-40 0 0 -45 c0 -38 3 -45 20 -45 18 0 20 -7
20 -65 0 -58 2 -65 20 -65 13 0 20 -7 20 -20 0 -13 7 -20 19 -20 14 0 20 -10
25 -40 6 -37 9 -40 46 -46 30 -5 40 -11 40 -25 0 -12 7 -19 20 -19 13 0 20 -7
20 -19 0 -15 10 -20 45 -25 36 -6 45 -11 45 -27 0 -18 9 -19 175 -19 166 0
175 1 175 19 0 16 9 21 45 27 35 5 45 10 45 25 0 20 29 25 88 13 24 -5 31 -12
36 -39 4 -21 14 -35 26 -38 12 -3 20 -14 20 -26 0 -14 6 -21 20 -21 13 0 20
-7 20 -19 0 -13 8 -21 23 -23 14 -2 23 -11 25 -25 2 -15 10 -23 23 -23 12 0
19 -7 19 -20 0 -13 7 -20 20 -20 14 0 20 -7 20 -21 0 -12 8 -23 20 -26 11 -3
20 -14 20 -24 0 -14 7 -19 25 -19 20 0 25 -5 25 -25 0 -18 5 -25 19 -25 13 0
21 -10 25 -34 4 -22 13 -36 26 -39 12 -3 20 -14 20 -26 0 -14 6 -21 20 -21 13
0 20 -7 20 -20 0 -13 7 -20 20 -20 15 0 20 -7 20 -25 0 -18 5 -25 20 -25 18 0
20 8 22 107 3 121 3 121 84 108 27 -4 44 -11 44 -19 0 -9 18 -16 45 -20 36 -6
45 -11 45 -27 0 -17 7 -19 65 -19 58 0 65 2 65 20 0 13 7 20 20 20 18 0 20 7
20 69 0 108 11 191 26 191 13 0 30 96 22 122 -4 10 -47 13 -199 13 l-194 0 1
23 c0 12 1 168 2 347 2 318 2 325 22 325 20 0 20 7 20 359 0 371 3 421 26 421
10 0 14 13 14 39 0 35 -3 39 -31 45 -17 3 -76 6 -130 6 -92 0 -99 1 -99 20 0
17 -7 20 -40 20 -33 0 -40 -3 -40 -20 0 -19 -7 -20 -90 -20 -83 0 -90 1 -90
20 0 17 -7 20 -40 20 -33 0 -40 -3 -40 -20 0 -19 -7 -20 -130 -20 -123 0 -130
1 -130 20 0 21 -16 25 -57 14 -13 -4 -23 -13 -23 -20 0 -11 -20 -14 -90 -14
-83 0 -90 1 -90 20 0 21 -9 24 -59 14 -17 -4 -31 -13 -31 -20 0 -11 -29 -14
-150 -14 -143 0 -150 1 -150 20 0 15 -7 20 -25 20 -18 0 -25 -5 -25 -20 0 -19
-7 -20 -105 -20 -98 0 -105 1 -105 20 0 15 -7 20 -25 20 -18 0 -25 -5 -25 -20z
m830 -150 c0 -33 3 -40 20 -40 17 0 20 -7 20 -50 l0 -50 39 0 c30 0 40 -4 44
-20 3 -14 14 -20 31 -20 28 0 29 -2 20 -49 -6 -27 -11 -31 -39 -31 -18 0 -47
-3 -64 -6 -31 -6 -31 -7 -31 -70 0 -57 -2 -64 -20 -64 -11 0 -20 -7 -20 -15 0
-8 9 -15 20 -15 19 0 20 -7 20 -220 l0 -220 45 0 c38 0 45 3 45 20 0 15 -7 20
-25 20 l-25 0 0 175 0 175 45 0 c37 0 45 -3 45 -19 0 -15 10 -20 45 -25 36 -6
45 -11 45 -27 0 -12 7 -19 20 -19 13 0 20 -7 20 -20 0 -13 7 -20 20 -20 13 0
20 -7 20 -19 0 -13 8 -21 23 -23 18 -2 23 -10 25 -45 3 -35 7 -43 23 -43 16 0
19 -7 19 -41 0 -32 4 -42 20 -46 17 -5 20 -14 20 -69 0 -57 -2 -64 -20 -64
-13 0 -20 -7 -20 -20 0 -13 7 -20 20 -20 17 0 20 -7 20 -45 0 -38 -3 -45 -20
-45 -13 0 -20 -7 -20 -20 0 -13 -7 -20 -20 -20 -13 0 -20 -7 -20 -20 0 -13 7
-20 20 -20 15 0 20 -7 20 -25 0 -18 -5 -25 -20 -25 -14 0 -20 -7 -20 -21 0
-12 -8 -23 -20 -26 -14 -4 -22 -17 -26 -44 -6 -37 -8 -39 -45 -39 -31 0 -38 4
-41 23 -2 14 -11 23 -25 25 -15 2 -23 10 -23 23 0 12 -7 19 -20 19 -13 0 -20
7 -20 20 0 13 -7 20 -20 20 -15 0 -20 7 -20 25 0 18 -5 25 -19 25 -15 0 -21
10 -26 40 -5 30 -11 40 -26 40 -12 0 -19 7 -19 19 0 16 9 21 45 27 55 8 59 29
8 38 -71 11 -93 8 -93 -14 0 -19 -7 -20 -110 -20 -87 0 -110 3 -110 14 0 16
43 26 116 26 47 0 54 2 54 20 0 13 -7 20 -20 20 -15 0 -20 7 -20 25 0 18 -5
25 -20 25 -11 0 -20 7 -20 15 0 8 9 15 20 15 20 0 20 7 20 310 l0 310 -45 0
c-32 0 -45 4 -45 14 0 9 -15 17 -40 21 -30 5 -40 11 -40 25 0 15 10 20 45 26
28 4 45 11 45 20 0 10 13 14 40 14 l40 0 0 65 c0 58 2 65 20 65 15 0 20 7 20
25 0 20 5 25 25 25 23 0 25 -4 25 -40z m-130 -655 l0 -175 -25 0 c-20 0 -25
-5 -25 -25 0 -18 -5 -25 -20 -25 -11 0 -20 -7 -20 -15 0 -10 -10 -15 -34 -15
-53 0 -96 -11 -96 -25 0 -14 -43 -25 -96 -25 -27 0 -34 4 -34 19 0 15 10 20
45 25 36 6 45 11 45 27 0 17 8 19 85 19 l85 0 0 45 c0 38 -3 45 -19 45 -15 0
-21 10 -26 40 -5 30 -11 40 -26 40 -12 0 -19 7 -19 20 0 13 -7 20 -20 20 -15
0 -20 7 -20 25 0 18 -5 25 -20 25 -13 0 -20 7 -20 20 0 13 7 20 20 20 13 0 20
7 20 19 0 16 9 21 45 27 35 5 45 10 45 25 0 17 8 19 65 19 l65 0 0 -175z m-90
-415 c0 -18 -7 -20 -85 -20 -78 0 -85 -2 -85 -20 0 -17 -7 -20 -45 -20 -38 0
-45 3 -45 20 0 17 7 20 45 20 38 0 45 3 45 20 0 18 7 20 85 20 78 0 85 -2 85
-20z"/>
<path d="M1560 1680 c0 -18 7 -20 65 -20 58 0 65 2 65 20 0 18 -7 20 -65 20
-58 0 -65 -2 -65 -20z"/>
<path d="M1730 1630 c0 -17 7 -20 45 -20 38 0 45 3 45 20 0 17 -7 20 -45 20
-38 0 -45 -3 -45 -20z"/>
<path d="M1520 1506 c0 -16 43 -26 116 -26 47 0 54 -2 54 -20 0 -17 7 -20 45
-20 38 0 45 3 45 20 0 17 -7 20 -45 20 -38 0 -45 3 -45 20 0 18 -7 20 -85 20
-65 0 -85 -3 -85 -14z"/>
<path d="M3080 2305 c0 -168 1 -175 20 -175 13 0 20 -7 20 -20 0 -15 7 -20 25
-20 18 0 25 -5 25 -20 0 -18 7 -20 85 -20 67 0 85 3 85 14 0 9 15 17 39 21 33
5 40 11 45 37 3 17 6 46 6 64 0 24 5 34 15 34 13 0 15 20 15 124 0 120 -1 124
-22 130 -60 16 -58 20 -58 -149 0 -148 -1 -155 -20 -155 -13 0 -20 -7 -20 -20
0 -18 -7 -20 -84 -20 l-83 0 -7 31 c-3 17 -6 96 -6 175 l0 144 -40 0 -40 0 0
-175z"/>
<path d="M3690 2265 c0 -208 1 -215 20 -215 13 0 20 7 20 20 0 13 7 20 20 20
19 0 20 7 20 111 0 109 0 110 23 107 14 -2 23 -11 25 -25 2 -15 10 -23 23 -23
12 0 19 -7 19 -20 0 -13 7 -20 20 -20 15 0 20 -7 20 -25 0 -18 5 -25 19 -25
15 0 21 -10 26 -40 5 -30 11 -40 26 -40 12 0 19 -7 19 -20 0 -17 7 -20 40 -20
l40 0 0 215 0 215 -40 0 -40 0 0 -130 c0 -123 -1 -130 -20 -130 -13 0 -20 7
-20 20 0 15 -7 20 -25 20 -20 0 -25 5 -25 25 0 18 -5 25 -19 25 -15 0 -21 10
-26 40 -5 30 -11 40 -26 40 -12 0 -19 7 -19 19 0 10 -9 21 -20 24 -12 3 -20
14 -20 26 0 18 -6 21 -40 21 l-40 0 0 -215z"/>
<path d="M4300 2316 c0 -90 -3 -178 -6 -195 -6 -27 -4 -31 15 -31 14 0 21 -6
21 -20 0 -15 7 -20 25 -20 l25 0 0 215 0 215 -40 0 -40 0 0 -164z"/>
<path d="M4596 2472 c-3 -5 -3 -25 1 -45 4 -27 11 -37 24 -37 16 0 19 -8 19
-45 0 -38 3 -45 20 -45 18 0 20 -7 20 -60 0 -52 2 -60 19 -60 15 0 20 -10 25
-45 6 -36 11 -45 27 -45 12 0 19 -7 19 -20 0 -13 7 -20 20 -20 13 0 20 7 20
20 0 13 7 20 19 20 16 0 21 9 27 45 3 26 12 45 19 45 15 0 25 31 25 83 0 30 4
37 20 37 17 0 20 7 20 45 0 38 3 45 20 45 17 0 20 7 20 45 l0 45 -40 0 -40 0
0 -65 c0 -57 -2 -65 -19 -65 -15 0 -20 -10 -25 -45 -5 -28 -12 -45 -21 -45 -8
0 -16 -16 -20 -40 -5 -30 -11 -40 -26 -40 -16 0 -19 7 -19 40 0 33 -3 40 -19
40 -16 0 -21 9 -27 45 -5 35 -10 45 -25 45 -17 0 -19 8 -19 65 l0 65 -39 0
c-22 0 -42 -4 -45 -8z"/>
<path d="M5200 2265 l0 -215 156 0 157 0 -7 31 c-3 17 -6 35 -6 40 0 5 -48 10
-107 11 -121 3 -121 3 -108 84 l6 44 105 0 c97 0 104 1 104 20 0 19 -7 20
-104 20 l-103 0 -6 36 c-3 20 -4 49 0 65 l5 28 107 3 c101 3 106 4 109 26 l3
22 -155 0 -156 0 0 -215z"/>
<path d="M5760 2265 l0 -215 25 0 c25 0 25 1 25 85 l0 85 38 0 c67 0 82 -9 88
-51 5 -29 11 -39 25 -39 12 0 19 -7 19 -20 0 -14 7 -20 21 -20 12 0 23 -8 26
-20 3 -11 14 -20 24 -20 15 0 19 7 19 40 0 33 -4 40 -19 40 -13 0 -21 10 -25
33 -9 50 3 97 25 97 14 0 19 7 19 25 0 18 5 25 20 25 17 0 20 7 20 40 0 33 -3
40 -20 40 -15 0 -20 7 -20 25 0 18 -5 25 -20 25 -13 0 -20 7 -20 20 0 19 -7
20 -135 20 l-135 0 0 -215z m220 145 c0 -13 7 -20 20 -20 17 0 20 -7 20 -45 0
-38 -3 -45 -20 -45 -13 0 -20 -7 -20 -20 0 -18 -7 -20 -85 -20 l-85 0 0 85 0
85 85 0 c78 0 85 -2 85 -20z"/>
<path d="M6330 2439 c0 -32 -4 -42 -20 -46 -23 -6 -28 -43 -6 -43 10 0 17 -16
22 -45 l6 -45 64 0 c57 0 64 -2 64 -20 0 -17 7 -20 39 -20 35 0 39 -3 45 -31
12 -61 17 -59 -124 -59 -123 0 -130 -1 -130 -20 0 -17 7 -20 40 -20 33 0 40
-3 40 -20 0 -19 7 -20 90 -20 83 0 90 1 90 20 0 13 7 20 20 20 15 0 20 7 20
25 0 18 5 25 20 25 17 0 20 7 20 40 0 33 -3 40 -20 40 -13 0 -20 7 -20 20 0
15 -7 20 -25 20 -18 0 -25 5 -25 20 0 15 -7 20 -27 20 -64 0 -103 12 -103 31
0 13 -7 19 -21 19 -19 0 -21 4 -15 31 3 17 6 35 6 40 0 5 29 9 65 9 48 0 65
-3 65 -14 0 -16 60 -30 73 -17 4 4 7 24 5 42 l-3 34 -127 3 -128 3 0 -42z"/>
<path d="M6850 2265 c0 -208 1 -215 20 -215 19 0 20 7 20 215 0 208 -1 215
-20 215 -19 0 -20 -7 -20 -215z"/>
<path d="M7150 2265 l0 -215 110 0 c89 0 110 3 110 14 0 10 16 17 45 22 35 5
45 10 45 25 0 12 7 19 20 19 15 0 20 7 20 25 0 18 5 25 20 25 18 0 20 7 20 85
0 78 -2 85 -20 85 -17 0 -20 7 -20 39 0 38 -1 39 -39 46 -27 4 -41 13 -44 26
-5 18 -15 19 -136 19 l-131 0 0 -215z m220 151 c0 -8 10 -16 23 -18 14 -2 23
-11 25 -25 2 -15 10 -23 23 -23 18 0 20 -6 17 -87 -3 -83 -4 -88 -25 -91 -15
-2 -23 -10 -23 -23 0 -18 -6 -20 -87 -17 l-88 3 -3 105 c-2 58 0 124 3 148 l6
42 65 0 c49 0 64 -3 64 -14z"/>
<path d="M7890 2460 c0 -13 -7 -20 -19 -20 -14 0 -20 -10 -25 -44 -5 -32 -12
-45 -26 -49 -16 -4 -20 -14 -20 -46 0 -34 -3 -41 -20 -41 -18 0 -20 -7 -20
-60 0 -53 -2 -60 -20 -60 -17 0 -20 -7 -20 -45 0 -38 3 -45 20 -45 13 0 20 7
20 20 0 13 7 20 19 20 14 0 20 10 25 40 l6 40 105 0 c98 0 105 -1 105 -20 0
-13 7 -20 20 -20 17 0 20 -7 20 -40 0 -36 3 -40 25 -40 21 0 25 5 25 28 0 52
-13 102 -25 102 -15 0 -25 32 -25 83 0 30 -4 37 -20 37 -17 0 -20 7 -20 45 0
37 -3 45 -19 45 -15 0 -20 10 -25 45 -7 45 -8 45 -47 45 -32 0 -39 -3 -39 -20z
m45 -109 c4 -27 13 -41 26 -44 15 -4 19 -14 19 -46 l0 -41 -65 0 -65 0 0 40
c0 33 3 40 20 40 17 0 20 7 20 45 0 38 3 45 19 45 15 0 21 -10 26 -39z"/>
<path d="M8348 2473 c-16 -4 -18 -22 -18 -194 0 -161 2 -189 15 -189 8 0 15
-9 15 -20 0 -19 7 -20 110 -20 103 0 110 1 110 20 0 17 7 20 45 20 38 0 45 3
45 20 0 13 7 20 19 20 16 0 20 11 26 84 9 111 -1 176 -26 176 -14 0 -19 7 -19
25 0 20 -5 25 -25 25 -18 0 -25 5 -25 20 0 19 -6 20 -127 19 -71 -1 -136 -3
-145 -6z m192 -57 c0 -10 16 -17 45 -22 39 -5 45 -10 45 -30 0 -17 6 -24 20
-24 18 0 20 -7 20 -60 0 -52 -3 -60 -19 -60 -14 0 -20 -10 -25 -39 -7 -47 -18
-51 -133 -51 l-83 0 0 150 0 150 65 0 c50 0 65 -3 65 -14z"/>
<path d="M8970 2265 l0 -215 150 0 150 0 0 40 0 40 -125 0 -125 0 0 45 c0 38
3 45 20 45 13 0 20 7 20 20 0 18 7 20 85 20 78 0 85 2 85 20 0 18 -7 20 -74
20 -40 0 -88 3 -105 6 -30 6 -31 7 -31 65 l0 59 103 0 c121 0 147 6 147 31 0
18 -10 19 -150 19 l-150 0 0 -215z"/>
<path d="M5940 1941 c0 -13 -8 -21 -22 -23 -15 -2 -24 -11 -26 -25 -2 -15 -10
-23 -23 -23 -12 0 -19 -7 -19 -20 0 -19 7 -20 90 -20 83 0 90 1 90 20 0 17 7
20 40 20 36 0 40 3 40 25 0 18 5 25 20 25 32 0 23 27 -11 34 -17 3 -65 6 -105
6 -66 0 -74 -2 -74 -19z"/>
<path d="M3290 1720 c0 -17 -7 -20 -40 -20 -33 0 -40 -3 -40 -19 0 -13 -8 -21
-22 -23 -15 -2 -24 -11 -26 -25 -2 -15 -10 -23 -23 -23 -12 0 -19 -7 -19 -20
0 -13 -7 -20 -20 -20 -17 0 -20 -7 -20 -45 0 -38 -3 -45 -20 -45 -19 0 -20 -7
-20 -150 0 -143 1 -150 20 -150 17 0 20 -7 20 -45 0 -38 3 -45 20 -45 13 0 20
-7 20 -20 0 -13 7 -20 19 -20 13 0 21 -8 23 -22 2 -15 11 -24 26 -26 14 -2 22
-10 22 -23 0 -16 7 -19 40 -19 33 0 40 -3 40 -20 0 -19 7 -20 175 -20 168 0
175 1 175 20 0 17 7 20 39 20 33 0 40 4 43 23 2 14 11 23 26 25 14 2 22 10 22
23 0 12 7 19 20 19 13 0 20 7 20 20 0 13 -7 20 -20 20 -13 0 -20 7 -20 20 0
13 -7 20 -19 20 -13 0 -21 8 -23 23 -3 20 -9 22 -65 25 -57 3 -63 1 -63 -17 0
-16 -9 -21 -45 -27 -35 -5 -45 -10 -45 -25 0 -16 -7 -19 -41 -19 -32 0 -42 4
-46 20 -4 16 -14 20 -44 20 -35 0 -39 3 -39 25 0 20 -5 25 -25 25 -22 0 -25 4
-25 40 0 33 -3 40 -20 40 -18 0 -20 7 -20 70 0 63 2 70 20 70 17 0 20 7 20 40
0 36 3 40 25 40 20 0 25 5 25 25 0 23 4 25 40 25 33 0 40 3 40 20 0 17 7 20
45 20 37 0 45 -3 45 -19 0 -15 10 -20 45 -25 36 -6 45 -11 45 -27 0 -16 7 -19
45 -19 38 0 45 3 45 19 0 15 10 21 40 26 30 5 40 11 40 26 0 12 7 19 20 19 13
0 20 7 20 20 0 13 -7 20 -20 20 -13 0 -20 7 -20 20 0 13 -7 20 -19 20 -13 0
-21 8 -23 23 -2 18 -10 23 -45 25 -35 3 -43 7 -43 23 0 18 -8 19 -175 19 -168
0 -175 -1 -175 -20z"/>
<path d="M4200 1720 c0 -13 -7 -20 -20 -20 -17 0 -20 -7 -20 -45 0 -38 -3 -45
-20 -45 -18 0 -20 -7 -20 -61 0 -52 -3 -62 -20 -66 -14 -4 -21 -17 -26 -49 -5
-34 -11 -44 -25 -44 -15 0 -19 -7 -19 -40 0 -33 -3 -40 -20 -40 -18 0 -20 -7
-20 -65 0 -57 -2 -65 -19 -65 -15 0 -20 -10 -25 -45 -6 -36 -11 -45 -27 -45
-16 0 -19 -7 -19 -45 0 -38 -3 -45 -20 -45 -17 0 -20 -7 -20 -40 l0 -40 110 0
c103 0 110 1 110 20 0 13 7 20 20 20 17 0 20 7 20 45 0 41 2 45 25 45 18 0 25
5 25 20 0 19 7 20 125 20 118 0 125 -1 125 -20 0 -15 7 -20 25 -20 18 0 25 -5
25 -20 0 -13 7 -20 20 -20 17 0 20 -7 20 -45 l0 -45 130 0 c123 0 130 1 130
20 0 13 -7 20 -19 20 -15 0 -20 10 -25 45 -5 27 -12 45 -20 45 -15 0 -26 43
-26 96 0 27 -4 34 -20 34 -17 0 -20 7 -20 41 0 32 -4 42 -19 46 -19 5 -31 40
-31 94 0 22 -5 29 -20 29 -17 0 -20 7 -20 45 0 38 -3 45 -20 45 -17 0 -20 7
-20 45 0 37 -3 45 -19 45 -20 0 -31 34 -31 96 0 27 -4 34 -20 34 -13 0 -20 7
-20 20 0 19 -7 20 -110 20 -103 0 -110 -1 -110 -20z m138 -327 c3 -35 7 -43
23 -43 18 0 20 -6 17 -62 l-3 -63 -62 -3 c-59 -3 -63 -1 -63 18 0 13 -8 24
-20 27 -11 3 -20 11 -20 18 0 7 9 15 20 18 16 4 20 14 20 51 0 39 3 46 20 46
14 0 20 7 20 21 0 15 5 20 23 17 18 -2 23 -10 25 -45z"/>
<path d="M4720 1720 c0 -11 -7 -20 -15 -20 -12 0 -15 -14 -15 -64 0 -63 0 -64
31 -70 17 -3 65 -6 105 -6 59 0 74 -3 74 -15 0 -8 9 -15 20 -15 20 0 20 -7 20
-305 l0 -305 110 0 110 0 0 305 0 305 25 0 c16 0 25 6 25 15 0 12 15 15 74 15
40 0 88 3 105 6 l31 7 0 83 0 84 -350 0 c-343 0 -350 0 -350 -20z"/>
<path d="M5730 1720 c0 -15 -7 -20 -26 -20 -17 0 -28 -6 -31 -20 -3 -13 -17
-22 -39 -26 -24 -4 -34 -12 -34 -25 0 -14 -7 -19 -25 -19 -23 0 -25 -4 -25
-41 0 -32 -4 -42 -19 -46 -20 -5 -31 -41 -31 -99 0 -24 -5 -34 -15 -34 -12 0
-15 -13 -15 -60 0 -47 3 -60 15 -60 10 0 15 -10 15 -32 0 -69 12 -108 31 -108
15 0 19 -8 19 -40 0 -34 3 -40 21 -40 12 0 23 -8 26 -19 3 -13 17 -22 44 -26
29 -5 39 -11 39 -26 0 -14 7 -19 25 -19 18 0 25 -5 25 -20 0 -19 7 -20 190
-20 183 0 190 1 190 20 0 15 7 20 25 20 18 0 25 5 25 19 0 15 10 21 40 26 30
5 40 11 40 26 0 12 7 19 19 19 15 0 21 10 26 39 4 27 13 41 26 44 15 4 19 14
19 51 0 39 3 46 20 46 19 0 20 7 20 105 0 98 -1 105 -20 105 -17 0 -20 7 -20
45 0 38 -3 45 -19 45 -15 0 -21 10 -26 40 -5 30 -11 40 -26 40 -12 0 -19 7
-19 20 0 14 -7 20 -21 20 -12 0 -23 8 -26 20 -4 14 -17 22 -44 26 -29 5 -39
11 -39 25 0 18 -11 19 -190 19 -183 0 -190 -1 -190 -20z m250 -169 c0 -15 10
-20 45 -25 36 -6 45 -11 45 -27 0 -12 7 -19 20 -19 15 0 20 -7 20 -27 0 -55
13 -103 26 -103 8 0 14 -9 14 -20 0 -11 -6 -20 -14 -20 -13 0 -26 -48 -26
-102 0 -21 -5 -28 -20 -28 -13 0 -20 -7 -20 -19 0 -16 -9 -21 -45 -27 -35 -5
-45 -10 -45 -25 0 -17 -8 -19 -61 -19 -52 0 -62 3 -66 19 -3 13 -17 22 -43 26
-35 6 -39 10 -45 46 -5 29 -11 39 -26 39 -17 0 -19 8 -19 99 0 126 7 161 31
161 12 0 19 7 19 19 0 15 10 21 40 26 30 5 40 11 40 26 0 17 8 19 65 19 57 0
65 -2 65 -19z"/>
<path d="M6500 1330 l0 -410 305 0 305 0 0 74 c0 40 -3 88 -6 105 l-6 31 -189
0 -189 0 0 305 0 305 -110 0 -110 0 0 -410z"/>
<path d="M7240 1720 c0 -13 -7 -20 -20 -20 -20 0 -20 -7 -20 -370 0 -363 0
-370 20 -370 13 0 20 -7 20 -20 0 -19 7 -20 105 -20 l105 0 0 410 0 410 -105
0 c-98 0 -105 -1 -105 -20z"/>
<path d="M7840 1720 c0 -17 -7 -20 -40 -20 -33 0 -40 -3 -40 -19 0 -13 -8 -21
-22 -23 -15 -2 -24 -11 -26 -25 -2 -15 -10 -23 -23 -23 -12 0 -19 -7 -19 -20
0 -13 -7 -20 -20 -20 -17 0 -20 -7 -20 -45 0 -38 -3 -45 -20 -45 -19 0 -20 -7
-20 -150 0 -143 1 -150 20 -150 17 0 20 -7 20 -45 0 -38 3 -45 20 -45 14 0 20
-7 20 -21 0 -12 8 -23 19 -26 11 -3 21 -13 24 -24 3 -11 14 -19 26 -19 14 0
21 -6 21 -20 0 -17 7 -20 40 -20 33 0 40 -3 40 -20 0 -19 7 -20 175 -20 168 0
175 1 175 20 0 15 7 20 25 20 18 0 25 5 25 19 0 15 10 21 40 26 30 5 40 11 40
26 0 12 7 19 20 19 13 0 20 7 20 20 0 13 -7 20 -20 20 -13 0 -20 7 -20 20 0
13 -7 20 -20 20 -13 0 -20 7 -20 19 0 20 -34 31 -96 31 -27 0 -34 -4 -34 -19
0 -16 -9 -21 -45 -27 -35 -5 -45 -10 -45 -25 0 -16 -7 -19 -41 -19 -32 0 -42
4 -46 20 -4 16 -14 20 -44 20 -35 0 -39 3 -39 25 0 20 -5 25 -25 25 -18 0 -25
5 -25 20 0 11 -6 20 -14 20 -16 0 -26 43 -26 110 0 67 10 110 26 110 8 0 14 9
14 20 0 15 7 20 25 20 20 0 25 5 25 25 0 20 5 25 25 25 15 0 25 6 25 14 0 16
30 26 83 26 30 0 37 -4 37 -19 0 -15 10 -20 45 -25 36 -6 45 -11 45 -27 0 -16
7 -19 45 -19 38 0 45 3 45 20 0 13 7 20 20 20 13 0 20 7 20 20 0 13 7 20 19
20 27 0 33 13 25 55 -4 25 -11 35 -25 35 -14 0 -19 7 -19 25 0 23 -4 25 -45
25 -38 0 -45 3 -45 20 0 19 -7 20 -175 20 -168 0 -175 -1 -175 -20z"/>
<path d="M8750 1720 c0 -11 -6 -20 -14 -20 -10 0 -17 -16 -22 -45 -5 -35 -10
-45 -25 -45 -16 0 -19 -8 -19 -45 0 -38 -3 -45 -20 -45 -15 0 -20 -7 -20 -29
0 -49 -12 -91 -26 -91 -8 0 -15 -18 -20 -45 -5 -35 -10 -45 -25 -45 -16 0 -19
-8 -19 -45 0 -38 -3 -45 -20 -45 -16 0 -20 -7 -20 -34 0 -62 -11 -96 -31 -96
-16 0 -19 -8 -19 -45 0 -38 -3 -45 -20 -45 -17 0 -20 -7 -20 -40 l0 -40 110 0
c103 0 110 1 110 20 0 13 7 20 20 20 17 0 20 7 20 45 0 41 2 45 25 45 18 0 25
5 25 20 0 19 7 20 125 20 118 0 125 -1 125 -20 0 -15 7 -20 25 -20 18 0 25 -5
25 -20 0 -13 7 -20 20 -20 17 0 20 -7 20 -45 l0 -45 130 0 c123 0 130 1 130
20 0 13 -7 20 -19 20 -15 0 -20 10 -25 45 -5 28 -12 45 -21 45 -9 0 -16 17
-21 45 -5 35 -10 45 -25 45 -17 0 -19 8 -19 60 0 52 -2 60 -19 60 -15 0 -20
10 -25 45 -5 27 -12 45 -20 45 -15 0 -26 43 -26 96 0 27 -4 34 -20 34 -17 0
-20 7 -20 45 0 38 -3 45 -19 45 -16 0 -21 9 -27 45 -4 27 -12 45 -19 45 -8 0
-16 17 -20 40 l-7 40 -109 0 c-102 0 -109 -1 -109 -20z m140 -325 c0 -38 3
-45 20 -45 18 0 20 -7 20 -65 l0 -65 -65 0 c-58 0 -65 2 -65 20 0 13 -7 20
-20 20 -15 0 -20 7 -20 25 0 18 5 25 20 25 17 0 20 7 20 45 0 38 3 45 20 45
13 0 20 7 20 20 0 15 7 20 25 20 23 0 25 -4 25 -45z"/>
<path d="M0 1074 c0 -57 2 -64 20 -64 17 0 20 -7 20 -42 0 -89 13 -178 25
-178 7 0 16 -19 19 -45 l7 -45 53 0 c81 0 116 9 116 31 0 15 8 19 39 19 30 0
40 4 44 20 4 16 14 20 53 20 l47 0 -6 128 c-4 70 -7 147 -7 172 l0 45 -215 1
-215 2 0 -64z"/>
<path d="M3080 530 l0 -170 85 0 c69 0 85 3 85 15 0 12 -14 15 -65 15 l-65 0
0 155 c0 148 -1 155 -20 155 -19 0 -20 -7 -20 -170z"/>
<path d="M3250 680 c0 -13 7 -20 20 -20 13 0 20 7 20 20 0 13 -7 20 -20 20
-13 0 -20 -7 -20 -20z"/>
<path d="M3770 680 c0 -13 -7 -20 -20 -20 -13 0 -20 -7 -20 -20 0 -13 7 -20
20 -20 13 0 20 7 20 20 0 15 7 20 25 20 18 0 25 5 25 20 0 15 -7 20 -25 20
-18 0 -25 -5 -25 -20z"/>
<path d="M3910 680 c0 -17 7 -20 40 -20 l40 0 0 -45 c0 -38 3 -45 20 -45 17 0
20 7 20 45 0 38 -3 45 -20 45 -13 0 -20 7 -20 20 0 17 -7 20 -40 20 -33 0 -40
-3 -40 -20z"/>
<path d="M4810 680 c0 -13 -7 -20 -20 -20 -17 0 -20 -7 -20 -45 0 -38 3 -45
20 -45 13 0 20 -7 20 -20 0 -17 7 -20 45 -20 38 0 45 3 45 20 0 17 -7 20 -45
20 l-45 0 0 45 c0 38 3 45 20 45 13 0 20 7 20 20 0 13 -7 20 -20 20 -13 0 -20
-7 -20 -20z"/>
<path d="M4940 680 c0 -13 7 -20 20 -20 13 0 20 7 20 20 0 13 -7 20 -20 20
-13 0 -20 -7 -20 -20z"/>
<path d="M5460 681 c0 -13 8 -21 23 -23 18 -2 23 -10 25 -40 4 -47 27 -51 36
-7 7 35 1 49 -20 49 -8 0 -14 9 -14 20 0 15 -7 20 -25 20 -18 0 -25 -5 -25
-19z"/>
<path d="M5990 591 c0 -59 -3 -136 -6 -170 l-7 -61 112 0 c91 0 111 3 111 15
0 11 -19 15 -87 17 l-88 3 -3 153 c-2 126 -5 152 -17 152 -12 0 -15 -20 -15
-109z"/>
<path d="M6460 660 c0 -33 3 -40 20 -40 17 0 20 7 20 40 0 33 -3 40 -20 40
-17 0 -20 -7 -20 -40z"/>
<path d="M6720 675 c0 -18 5 -25 20 -25 15 0 20 7 20 25 0 18 -5 25 -20 25
-15 0 -20 -7 -20 -25z"/>
<path d="M7150 679 c0 -12 8 -23 20 -26 11 -3 20 -12 20 -19 0 -8 10 -14 25
-14 23 0 25 4 25 40 l0 40 -45 0 c-39 0 -45 -3 -45 -21z"/>
<path d="M7680 530 l0 -170 85 0 c69 0 85 3 85 15 0 10 -10 15 -32 15 -18 0
-50 3 -70 6 l-38 7 0 128 0 129 25 0 c18 0 25 5 25 20 0 17 -7 20 -40 20 l-40
0 0 -170z"/>
<path d="M7840 680 c0 -17 7 -20 45 -20 38 0 45 3 45 20 0 17 -7 20 -45 20
-38 0 -45 -3 -45 -20z"/>
<path d="M8370 680 c0 -13 7 -20 20 -20 13 0 20 7 20 20 0 13 -7 20 -20 20
-13 0 -20 -7 -20 -20z"/>
<path d="M8540 680 c0 -13 7 -20 20 -20 13 0 20 7 20 20 0 13 -7 20 -20 20
-13 0 -20 -7 -20 -20z"/>
<path d="M8980 550 c0 -124 2 -150 14 -150 10 0 16 14 18 43 2 35 7 43 26 45
32 5 30 42 -3 42 -24 0 -25 2 -25 65 0 63 1 65 25 65 18 0 25 5 25 20 0 17 -7
20 -40 20 l-40 0 0 -150z"/>
<path d="M9190 680 c0 -13 7 -20 20 -20 13 0 20 7 20 20 0 13 -7 20 -20 20
-13 0 -20 -7 -20 -20z"/>
<path d="M3300 641 c0 -15 6 -21 21 -21 25 0 22 33 -4 38 -12 2 -17 -3 -17
-17z"/>
<path d="M8330 620 c0 -29 4 -40 15 -40 11 0 15 11 15 40 0 29 -4 40 -15 40
-11 0 -15 -11 -15 -40z"/>
<path d="M8590 635 c0 -16 6 -25 15 -25 9 0 15 9 15 25 0 16 -6 25 -15 25 -9
0 -15 -9 -15 -25z"/>
<path d="M5420 615 c0 -28 4 -35 20 -35 16 0 20 7 20 35 0 28 -4 35 -20 35
-16 0 -20 -7 -20 -35z"/>
<path d="M7936 548 c1 -87 4 -103 17 -106 15 -3 17 9 17 102 0 94 -2 106 -17
106 -16 0 -18 -11 -17 -102z"/>
<path d="M9240 610 c0 -29 4 -40 15 -40 11 0 15 11 15 40 0 29 -4 40 -15 40
-11 0 -15 -11 -15 -40z"/>
<path d="M3340 530 c0 -73 2 -80 20 -80 18 0 20 7 20 80 0 73 -2 80 -20 80
-18 0 -20 -7 -20 -80z"/>
<path d="M3690 544 c0 -57 2 -65 18 -62 11 2 18 14 19 33 3 50 -8 95 -23 95
-11 0 -14 -16 -14 -66z"/>
<path d="M6510 570 c0 -29 4 -40 15 -40 11 0 15 11 15 40 0 29 -4 40 -15 40
-11 0 -15 -11 -15 -40z"/>
<path d="M6680 570 c0 -49 24 -55 34 -9 9 46 8 49 -14 49 -17 0 -20 -7 -20
-40z"/>
<path d="M7110 590 c0 -13 7 -20 20 -20 13 0 20 7 20 20 0 13 -7 20 -20 20
-13 0 -20 -7 -20 -20z"/>
<path d="M7240 545 l0 -65 -65 0 c-63 0 -65 1 -65 25 0 18 -5 25 -20 25 -17 0
-20 -7 -20 -42 l0 -43 125 0 c123 0 125 0 125 23 0 15 -6 22 -20 22 -18 0 -20
7 -20 60 0 53 -2 60 -20 60 -18 0 -20 -7 -20 -65z"/>
<path d="M8630 550 c0 -53 2 -60 20 -60 18 0 20 7 20 60 0 53 -2 60 -20 60
-18 0 -20 -7 -20 -60z"/>
<path d="M5380 536 c0 -54 -11 -96 -26 -96 -8 0 -14 -9 -14 -20 0 -11 7 -20
15 -20 8 0 15 8 15 19 0 20 40 31 115 31 75 0 115 -11 115 -31 0 -11 7 -19 15
-19 11 0 15 11 15 40 0 33 -3 40 -20 40 -17 0 -20 7 -20 45 0 38 -3 45 -20 45
-17 0 -20 -7 -20 -45 l0 -45 -64 0 -64 0 -6 45 c-9 55 -36 64 -36 11z"/>
<path d="M9190 551 c0 -15 -10 -20 -45 -25 -49 -8 -65 -36 -20 -36 20 0 25 -5
25 -25 0 -18 5 -25 20 -25 13 0 20 -7 20 -20 0 -13 7 -20 20 -20 13 0 20 7 20
20 0 13 -7 20 -20 20 -17 0 -20 7 -20 45 0 38 3 45 20 45 13 0 20 7 20 20 0
13 -7 20 -20 20 -13 0 -20 -7 -20 -19z"/>
<path d="M4947 523 c-16 -15 -6 -33 18 -33 23 0 25 -4 25 -45 0 -56 24 -63 34
-10 8 39 2 55 -18 55 -8 0 -16 9 -19 20 -5 19 -27 27 -40 13z"/>
<path d="M650 500 c0 -13 7 -20 20 -20 13 0 20 7 20 20 0 13 -7 20 -20 20 -13
0 -20 -7 -20 -20z"/>
<path d="M1990 505 c0 -9 9 -15 25 -15 16 0 25 6 25 15 0 9 -9 15 -25 15 -16
0 -25 -6 -25 -15z"/>
<path d="M6640 480 c0 -29 4 -40 15 -40 11 0 15 11 15 40 0 29 -4 40 -15 40
-11 0 -15 -11 -15 -40z"/>
<path d="M2560 465 c0 -18 -5 -25 -20 -25 -13 0 -20 -7 -20 -20 0 -15 -7 -20
-25 -20 -18 0 -25 -5 -25 -19 0 -17 -10 -20 -85 -26 -101 -9 -175 0 -175 21 0
8 -9 14 -20 14 -11 0 -20 -6 -20 -14 0 -9 -16 -16 -47 -19 -41 -5 -1498 -3
-1575 1 -18 1 -28 8 -28 17 0 8 -9 15 -20 15 -11 0 -20 -6 -20 -14 0 -20 -83
-30 -180 -21 -69 6 -80 10 -80 26 0 14 -7 19 -25 19 -18 0 -25 5 -25 20 0 13
-7 20 -20 20 -13 0 -20 7 -20 20 0 13 -7 20 -20 20 -13 0 -20 -7 -20 -20 0
-13 7 -20 20 -20 19 0 20 -7 20 -195 0 -188 1 -195 20 -195 15 0 20 -7 20 -25
l0 -25 1164 0 c640 0 1178 3 1195 6 l31 6 0 129 c0 122 1 129 20 129 19 0 20
7 20 110 0 103 -1 110 -20 110 -15 0 -20 -7 -20 -25z m-1601 -201 c28 -6 31
-10 31 -45 0 -28 -4 -39 -15 -39 -8 0 -15 -9 -15 -20 0 -11 7 -20 15 -20 8 0
15 -9 15 -19 0 -15 -10 -21 -40 -26 -30 -5 -40 -11 -40 -26 0 -16 7 -19 45
-19 38 0 45 -3 45 -20 0 -18 -7 -20 -70 -20 -63 0 -70 2 -70 20 0 11 -7 20
-15 20 -11 0 -15 13 -15 54 0 29 -3 67 -6 84 -5 26 -3 31 17 34 16 2 25 11 27
26 4 24 29 28 91 16z m211 -14 c0 -13 7 -20 20 -20 19 0 20 -7 20 -110 0 -103
-1 -110 -20 -110 -13 0 -20 7 -20 20 0 17 -7 20 -40 20 -33 0 -40 -3 -40 -20
0 -15 -7 -20 -25 -20 l-25 0 0 110 c0 101 2 110 19 110 10 0 21 9 24 20 4 16
14 20 46 20 34 0 41 -3 41 -20z m348 -27 c3 -38 1 -43 -17 -43 -20 0 -21 -6
-21 -85 0 -84 0 -85 -25 -85 -25 0 -25 1 -25 85 0 78 -2 85 -20 85 -17 0 -20
7 -20 45 l0 46 63 -3 62 -3 3 -42z m395 41 c34 -6 37 -9 37 -40 0 -26 -4 -33
-22 -36 -21 -3 -23 -9 -26 -70 -2 -52 -6 -68 -17 -68 -8 0 -15 -9 -15 -20 0
-15 -7 -20 -25 -20 -25 0 -25 1 -25 85 0 78 -2 85 -20 85 -17 0 -20 7 -20 45
l0 45 48 0 c26 0 64 -3 85 -6z m-1263 -38 c0 -28 4 -35 23 -38 14 -2 23 -11
25 -25 2 -13 9 -23 16 -23 14 0 26 42 26 91 0 22 5 29 20 29 18 0 20 -7 20
-85 0 -78 -2 -85 -20 -85 -17 0 -20 -7 -20 -40 l0 -40 -45 0 -45 0 0 45 c0 38
-3 45 -20 45 -18 0 -20 7 -20 80 0 73 2 80 20 80 16 0 20 -7 20 -34z m1040 -1
c0 -28 4 -35 20 -35 16 0 20 -7 20 -32 0 -59 12 -108 26 -108 8 0 14 -9 14
-20 0 -17 -7 -20 -40 -20 -33 0 -40 3 -40 20 0 17 -7 20 -45 20 -38 0 -45 -3
-45 -20 0 -13 -7 -20 -20 -20 -18 0 -20 7 -20 65 0 58 2 65 20 65 17 0 20 7
20 45 0 38 3 45 20 45 11 0 20 7 20 15 0 9 9 15 25 15 22 0 25 -4 25 -35z
m344 13 c3 -13 6 -69 6 -125 l0 -103 -25 0 -25 0 0 103 c0 113 6 147 25 147 7
0 15 -10 19 -22z m-694 -118 l0 -110 -40 0 -40 0 0 110 0 110 40 0 40 0 0
-110z m-870 20 c0 -22 -4 -40 -9 -40 -5 0 -23 -3 -40 -6 -28 -6 -31 -4 -31 20
0 19 -5 26 -20 26 -13 0 -20 7 -20 20 0 18 7 20 60 20 l60 0 0 -40z m1830 1
c0 -36 -2 -39 -37 -44 -47 -8 -53 -3 -53 44 l0 39 45 0 45 0 0 -39z"/>
<path d="M3990 465 c0 -18 -5 -25 -20 -25 -13 0 -20 -7 -20 -20 0 -13 7 -20
20 -20 13 0 20 7 20 20 0 13 7 20 20 20 15 0 20 7 20 25 0 18 -5 25 -20 25
-15 0 -20 -7 -20 -25z"/>
<path d="M6550 466 c0 -16 6 -26 14 -26 9 0 17 -15 21 -40 5 -30 11 -40 26
-40 16 0 19 7 19 40 0 33 -3 40 -19 40 -13 0 -21 8 -23 22 -5 34 -38 37 -38 4z"/>
<path d="M8327 483 c-15 -15 -7 -43 13 -43 13 0 20 -7 20 -20 0 -15 7 -20 25
-20 18 0 25 5 25 20 0 15 -7 20 -25 20 -20 0 -25 5 -25 25 0 24 -18 34 -33 18z"/>
<path d="M8586 449 c-9 -46 -8 -49 14 -49 17 0 20 7 20 40 0 49 -24 55 -34 9z"/>
<path d="M3290 420 c0 -13 7 -20 20 -20 13 0 20 7 20 20 0 13 -7 20 -20 20
-13 0 -20 -7 -20 -20z"/>
<path d="M3730 420 c0 -13 7 -20 20 -20 13 0 20 7 20 20 0 13 -7 20 -20 20
-13 0 -20 -7 -20 -20z"/>
<path d="M4770 420 c0 -13 7 -20 20 -20 13 0 20 7 20 20 0 13 -7 20 -20 20
-13 0 -20 -7 -20 -20z"/>
<path d="M7030 420 c0 -11 7 -20 15 -20 8 0 15 9 15 20 0 11 -7 20 -15 20 -8
0 -15 -9 -15 -20z"/>
<path d="M7890 420 c0 -13 7 -20 20 -20 13 0 20 7 20 20 0 13 -7 20 -20 20
-13 0 -20 -7 -20 -20z"/>
<path d="M3810 375 c0 -12 14 -15 65 -15 51 0 65 3 65 15 0 12 -14 15 -65 15
-51 0 -65 -3 -65 -15z"/>
<path d="M4810 375 c0 -12 16 -15 85 -15 69 0 85 3 85 15 0 12 -16 15 -85 15
-69 0 -85 -3 -85 -15z"/>
<path d="M8410 375 c0 -12 14 -15 65 -15 51 0 65 3 65 15 0 12 -14 15 -65 15
-51 0 -65 -3 -65 -15z"/>
</g>
</svg>
